<svg id="Laag_1" data-name="Laag 1" xmlns="http://www.w3.org/2000/svg" viewBox="0 0 567.22 171.64"><defs><style>.cls-1{fill:#312783;}.cls-2{fill:#f39200;}</style></defs><path class="cls-1" d="M42.34,18.7q7.75,0,12.5,2.53a18,18,0,0,1,7.39,7.23A32.15,32.15,0,0,1,65.8,39.78a106.72,106.72,0,0,1,.93,14.78,105,105,0,0,1-1.19,16.89,32.24,32.24,0,0,1-4.08,11.84,17.92,17.92,0,0,1-7.75,6.92,29,29,0,0,1-12.3,2.27H18V18.7ZM39.45,81.53a12.86,12.86,0,0,0,6.3-1.34,9.26,9.26,0,0,0,3.77-4.45,26,26,0,0,0,1.86-8.16q.46-5.07.47-12.61,0-6.3-.42-11.06a27.1,27.1,0,0,0-1.7-7.9,9.86,9.86,0,0,0-3.83-4.76,12.57,12.57,0,0,0-6.76-1.6H32.83V81.53Z"/><path class="cls-1" d="M104,18.7q9.3,0,14.47,4.7t5.17,14.31q0,7.44-3,12.14a13.85,13.85,0,0,1-9.3,6v.21q5.58.82,8.17,3.61t3.2,9c.14,1.38.24,2.88.31,4.5s.14,3.43.21,5.43q.19,5.88.62,9a5.74,5.74,0,0,0,2.68,4.23v.62H110.44A8,8,0,0,1,109,88.92c-.2-1.34-.34-2.74-.41-4.19l-.41-14.16A11.67,11.67,0,0,0,106,63.75q-2-2.47-6.62-2.48H91.43V92.48H76.55V18.7Zm-6.4,32.24c3.58,0,6.34-.84,8.26-2.53s2.9-4.53,2.9-8.53q0-10.23-10.34-10.23h-7V50.94Z"/><path class="cls-1" d="M133.23,40.14A34.18,34.18,0,0,1,136.64,28a19.16,19.16,0,0,1,7.59-7.91q5-2.84,13.34-2.84t13.33,2.84A19.09,19.09,0,0,1,178.49,28a34,34,0,0,1,3.41,12.14,141.64,141.64,0,0,1,.78,15.45,141.14,141.14,0,0,1-.78,15.5,33.88,33.88,0,0,1-3.41,12.09,18.09,18.09,0,0,1-7.59,7.75q-5,2.68-13.33,2.69t-13.34-2.69a18.14,18.14,0,0,1-7.59-7.75,34.08,34.08,0,0,1-3.41-12.09,141.14,141.14,0,0,1-.78-15.5A141.64,141.64,0,0,1,133.23,40.14ZM147.7,68.25a35.25,35.25,0,0,0,1.44,8.47,9.51,9.51,0,0,0,3.1,4.76,10.2,10.2,0,0,0,10.65,0,9.51,9.51,0,0,0,3.1-4.76,35.7,35.7,0,0,0,1.45-8.47q.36-5.22.36-12.66T167.44,43A36.37,36.37,0,0,0,166,34.51a9.49,9.49,0,0,0-3.1-4.81,10.2,10.2,0,0,0-10.65,0,9.49,9.49,0,0,0-3.1,4.81A35.9,35.9,0,0,0,147.7,43q-.37,5.18-.37,12.61T147.7,68.25Z"/><path class="cls-1" d="M213,73.26h.31L224.22,18.7h15.4l-17,73.78H203.55L186.61,18.7h15.91Z"/><path class="cls-1" d="M280.23,69.23h.21V18.7h13.64V92.48H277.13L259,40.81h-.21V92.48H245.1V18.7h17.15Z"/><path class="cls-2" d="M354.12,18.7a36.17,36.17,0,0,1,8.43.93,17.21,17.21,0,0,1,6.66,3.1,14.2,14.2,0,0,1,4.34,5.78,22.69,22.69,0,0,1,1.55,8.89,18.4,18.4,0,0,1-2.79,10.28,14,14,0,0,1-8.37,5.84v.21A14.64,14.64,0,0,1,373.76,59q3.62,4.44,3.61,11.88a29.5,29.5,0,0,1-1.13,8.27A16.85,16.85,0,0,1,372.36,86a19.34,19.34,0,0,1-7.13,4.7,29.53,29.53,0,0,1-10.9,1.75H329.22V18.7ZM348.34,49q6.2,0,9-2.23c1.89-1.48,2.84-4,2.84-7.49s-.86-6-2.58-7.44-4.45-2.17-8.17-2.17H344.1V49Zm1.55,32.55a14.52,14.52,0,0,0,8.68-2.38q3.3-2.37,3.3-8.78a13.85,13.85,0,0,0-.88-5.32,8.76,8.76,0,0,0-2.37-3.41,8.52,8.52,0,0,0-3.57-1.81,18.44,18.44,0,0,0-4.54-.52H344.1V81.53Z"/><path class="cls-2" d="M419.44,18.7,439,92.48h-15.5l-3.41-15.6H400.42L397,92.48h-15.5L401,18.7Zm-2,46-7.13-33.17h-.21L403,64.68Z"/><path class="cls-2" d="M479.27,69.23h.21V18.7h13.64V92.48H476.17L458,40.81h-.2V92.48H444.13V18.7h17.16Z"/><path class="cls-2" d="M518.33,48.25h.21L537.35,18.7h16.12L533.42,50.32l22.32,42.16H539L523.81,62.2l-5.48,8.37V92.48H503.45V18.7h14.88Z"/><path class="cls-1" d="M17.58,104.2h2.87L32.3,146.71h.13l12-42.51H48l12.23,42.51h.13L72,104.2h3L61.93,149.7H58.75L46.26,106.62h-.13L33.83,149.7H30.71Z"/><path class="cls-1" d="M78.63,104.2h30.58v2.42H81.43v18.22h26.12v2.43H81.43v20h28.1v2.42H78.63Z"/><path class="cls-1" d="M132,104.2h4l17.78,42.38h.13l17.59-42.38h4v45.5h-2.8V107.64h-.13L155.28,149.7h-2.81L135,107.64h-.13V149.7H132Z"/><path class="cls-1" d="M197.08,104.2h3.06l18,45.5h-3l-5.74-14.59H187.58l-5.8,14.59h-3Zm11.4,28.48-9.75-25.74h-.12l-10.14,25.74Z"/><path class="cls-1" d="M221.35,104.2h2.81v26.19l28.61-26.19h3.63l-20.77,18.92,22,26.58h-3.5L233.59,125l-9.43,8.6V149.7h-2.81Z"/><path class="cls-1" d="M260.41,104.2H291v2.42H263.22v18.22h26.12v2.43H263.22v20h28.09v2.42h-30.9Z"/><path class="cls-1" d="M313.81,104.2h2.8v45.5h-2.8Z"/><path class="cls-1" d="M319.73,106.62V104.2h34.86v2.42H338.53V149.7h-2.8V106.62Z"/><path class="cls-1" d="M371,104.2h2.86l11.85,42.51h.13l12.05-42.51h3.5l12.23,42.51h.13l11.66-42.51h3l-13.07,45.5h-3.18L399.7,106.62h-.13l-12.3,43.08h-3.12Z"/><path class="cls-1" d="M473.29,127a29.27,29.27,0,0,1-1.46,9.33,22.4,22.4,0,0,1-4.24,7.59,19.88,19.88,0,0,1-6.79,5.07,21.55,21.55,0,0,1-9.11,1.84,21.78,21.78,0,0,1-9.14-1.84,19.81,19.81,0,0,1-6.82-5.07,22.4,22.4,0,0,1-4.24-7.59,30.57,30.57,0,0,1,0-18.67,22.35,22.35,0,0,1,4.24-7.58,19.56,19.56,0,0,1,6.82-5.07,21.79,21.79,0,0,1,9.14-1.85A21.55,21.55,0,0,1,460.8,105a19.63,19.63,0,0,1,6.79,5.07,22.35,22.35,0,0,1,4.24,7.58A29.34,29.34,0,0,1,473.29,127Zm-40.46,0a26.39,26.39,0,0,0,1.28,8.28A20.33,20.33,0,0,0,437.8,142a18,18,0,0,0,5.93,4.62,19.23,19.23,0,0,0,15.9,0,18.16,18.16,0,0,0,5.89-4.62,20.33,20.33,0,0,0,3.69-6.79,27.45,27.45,0,0,0,0-16.57,20.38,20.38,0,0,0-3.69-6.78,18.06,18.06,0,0,0-5.89-4.63,18.13,18.13,0,0,0-21.83,4.63,20.38,20.38,0,0,0-3.69,6.78A26.45,26.45,0,0,0,432.83,127Z"/><path class="cls-1" d="M479.28,104.2h19a25,25,0,0,1,5.61.6,13.23,13.23,0,0,1,4.59,2,9.5,9.5,0,0,1,3.09,3.6,12.37,12.37,0,0,1,1.11,5.54,11.86,11.86,0,0,1-2.58,7.75,11.23,11.23,0,0,1-7.17,3.91v.13a10.89,10.89,0,0,1,4.94,1.66,8.15,8.15,0,0,1,2.71,3.12,12.76,12.76,0,0,1,1.14,4.08A39.37,39.37,0,0,1,512,141v2.62a20,20,0,0,0,.13,2.39,11.67,11.67,0,0,0,.41,2.07,4.66,4.66,0,0,0,.8,1.59h-3.12a8.15,8.15,0,0,1-1-3.73c-.07-1.42-.1-2.9-.1-4.43s-.06-3-.19-4.55a9.74,9.74,0,0,0-1.21-4.05,7.22,7.22,0,0,0-3.22-2.87,14.36,14.36,0,0,0-6.21-1.08H482.09V149.7h-2.81Zm19,22.37a17,17,0,0,0,4.62-.61,9.78,9.78,0,0,0,3.66-1.88,9,9,0,0,0,2.43-3.25,11.49,11.49,0,0,0,.89-4.72,9.23,9.23,0,0,0-1-4.36,8.55,8.55,0,0,0-2.55-3,10.52,10.52,0,0,0-3.69-1.65,18.6,18.6,0,0,0-4.4-.51H482.09v19.95Z"/><path class="cls-1" d="M519.42,104.2h2.81v26.19l28.61-26.19h3.63L533.7,123.12l22,26.58h-3.5L531.66,125l-9.43,8.6V149.7h-2.81Z"/></svg>