<svg id="Laag_1" data-name="Laag 1" xmlns="http://www.w3.org/2000/svg" viewBox="0 0 562.31 171.64"><defs><style>.cls-1{fill:#312783;}.cls-2{fill:#f39200;}</style></defs><path class="cls-1" d="M33.41,50.82q7.74,0,12.5,2.53a18,18,0,0,1,7.39,7.24A32,32,0,0,1,56.87,71.9a106.82,106.82,0,0,1,.93,14.78,105.14,105.14,0,0,1-1.19,16.9,32.55,32.55,0,0,1-4.08,11.83,17.89,17.89,0,0,1-7.76,6.92,28.91,28.91,0,0,1-12.29,2.28H9V50.82Zm-2.9,62.83a12.77,12.77,0,0,0,6.31-1.34,9.23,9.23,0,0,0,3.77-4.44,26,26,0,0,0,1.86-8.17q.46-5.06.46-12.61c0-4.2-.13-7.88-.41-11a27.17,27.17,0,0,0-1.7-7.91A9.89,9.89,0,0,0,37,63.38a12.52,12.52,0,0,0-6.77-1.6H23.9v51.87Z"/><path class="cls-1" d="M95.1,50.82q9.3,0,14.47,4.7t5.17,14.32q0,7.44-3,12.14a13.89,13.89,0,0,1-9.3,6v.2q5.58.83,8.16,3.62t3.21,9c.13,1.38.24,2.88.31,4.49s.13,3.43.2,5.43c.14,3.93.35,6.92.62,9a5.8,5.8,0,0,0,2.69,4.24v.62H101.51a8,8,0,0,1-1.45-3.57c-.2-1.34-.34-2.74-.41-4.18l-.41-14.16a11.72,11.72,0,0,0-2.17-6.82q-2-2.47-6.62-2.48h-8v31.21H67.61V50.82ZM88.69,83.06c3.59,0,6.34-.84,8.27-2.53S99.86,76,99.86,72q0-10.23-10.34-10.23h-7V83.06Z"/><path class="cls-1" d="M124.3,72.27a34.09,34.09,0,0,1,3.41-12.15,19,19,0,0,1,7.59-7.9q5-2.85,13.33-2.85T162,52.22a19.09,19.09,0,0,1,7.6,7.9A34.3,34.3,0,0,1,173,72.27a141.45,141.45,0,0,1,.78,15.44,141.46,141.46,0,0,1-.78,15.51,34.21,34.21,0,0,1-3.41,12.09,18.16,18.16,0,0,1-7.6,7.75q-5,2.68-13.33,2.69t-13.33-2.69a18.08,18.08,0,0,1-7.59-7.75,34,34,0,0,1-3.41-12.09,141.46,141.46,0,0,1-.78-15.51A141.45,141.45,0,0,1,124.3,72.27Zm14.46,28.1a35.29,35.29,0,0,0,1.45,8.48,9.41,9.41,0,0,0,3.1,4.75,10.2,10.2,0,0,0,10.65,0,9.47,9.47,0,0,0,3.1-4.75,35.35,35.35,0,0,0,1.44-8.48q.36-5.2.36-12.66t-.36-12.6a36,36,0,0,0-1.44-8.48,9.5,9.5,0,0,0-3.1-4.8,10.2,10.2,0,0,0-10.65,0,9.44,9.44,0,0,0-3.1,4.8,35.94,35.94,0,0,0-1.45,8.48q-.36,5.16-.36,12.6T138.76,100.37Z"/><path class="cls-1" d="M204,105.39h.32l10.95-54.57h15.4l-16.95,73.79H194.62l-17-73.79h15.92Z"/><path class="cls-1" d="M271.3,101.36h.21V50.82h13.64v73.79H268.2L250,72.94h-.2v51.67H236.17V50.82h17.15Z"/><path class="cls-2" d="M345.19,50.82a36,36,0,0,1,8.42.93,17.33,17.33,0,0,1,6.67,3.1,14.3,14.3,0,0,1,4.34,5.79,22.62,22.62,0,0,1,1.55,8.89,18.45,18.45,0,0,1-2.79,10.28A14,14,0,0,1,355,85.65v.21a14.62,14.62,0,0,1,9.82,5.27q3.62,4.44,3.61,11.88a29.93,29.93,0,0,1-1.13,8.27,16.87,16.87,0,0,1-3.88,6.87,19.42,19.42,0,0,1-7.13,4.7,29.52,29.52,0,0,1-10.9,1.76H320.28V50.82ZM339.4,81.1c4.14,0,7.15-.74,9.05-2.22s2.84-4,2.84-7.49-.86-6-2.59-7.44-4.44-2.17-8.16-2.17h-5.37V81.1ZM341,113.65a14.57,14.57,0,0,0,8.68-2.37c2.21-1.59,3.31-4.51,3.31-8.79a13.89,13.89,0,0,0-.88-5.32,8.94,8.94,0,0,0-2.37-3.41A8.64,8.64,0,0,0,346.12,92a19,19,0,0,0-4.55-.52h-6.4v22.22Z"/><path class="cls-2" d="M410.5,50.82,430,124.61H414.53L411.12,109H391.49l-3.41,15.61h-15.5l19.53-73.79Zm-2,46-7.13-33.17h-.21l-7.13,33.17Z"/><path class="cls-2" d="M470.34,101.36h.21V50.82h13.64v73.79H467.24L449.05,72.94h-.21v51.67H435.2V50.82h17.16Z"/><path class="cls-2" d="M509.4,80.38h.21l18.81-29.56h16.12l-20,31.62,22.32,42.17H530.07L514.88,94.33l-5.48,8.37v21.91H494.52V50.82H509.4Z"/></svg>