<svg id="Laag_1" data-name="Laag 1" xmlns="http://www.w3.org/2000/svg" viewBox="0 0 183.08 171.64"><defs><style>.cls-1{fill:none;}.cls-2{fill:#fff;}.cls-3{fill:#f39200;}</style></defs><path class="cls-1" d="M129.62,91.76c-4.8-1.45-14.76-.8-20-.94v40.47h10.54C143.8,135.31,150.9,98.48,129.62,91.76Z"/><path class="cls-1" d="M47.94,82.92c.3,29.19-1.14,53.11,34.63,48.37V36.8C48.23,32.38,47.93,54.83,47.94,82.92Z"/><path class="cls-1" d="M134.33,40.75c-4.33-4.54-17.44-4-24.66-4V72h7.72C137.31,75.12,145.31,53.25,134.33,40.75Z"/><path class="cls-2" d="M20.84,82.16c-1.53,67.12,23.45,70.81,74.79,69.5V16.52C46.6,15.35,18.9,16.47,20.84,82.16Zm61.73,49.13C46.8,136,48.24,112.11,47.94,82.92c0-28.09.29-50.54,34.63-46.12Z"/><path class="cls-3" d="M145.81,80.66v-.38c36.89-12.39,20.62-69.7-17.88-63.43H109.67c-4.86-.1-9.54-.22-14-.33V151.66l10.41-.3c16.18.26,34.77.22,42.13-3.32C177.66,138.64,179.05,84.27,145.81,80.66ZM109.67,36.8c7.22-.08,20.33-.59,24.66,4,11,12.5,3,34.37-16.94,31.25h-7.72Zm10.54,94.49H109.67V90.82c5.19.14,15.15-.51,20,.94C150.9,98.48,143.8,135.31,120.21,131.29Z"/></svg>