<svg id="Laag_1" data-name="Laag 1" xmlns="http://www.w3.org/2000/svg" viewBox="0 0 3192.17 138.32"><defs><style>.cls-1{fill:#fff;}.cls-2{fill:#f39200;}.cls-3{fill:none;}</style></defs><path class="cls-1" d="M203.05,21.24q7.75,0,12.51,2.53A18.08,18.08,0,0,1,223,31a32.29,32.29,0,0,1,3.56,11.31,106.82,106.82,0,0,1,.93,14.78A105.14,105.14,0,0,1,226.25,74a32.18,32.18,0,0,1-4.08,11.83,18,18,0,0,1-7.75,6.93A29.15,29.15,0,0,1,202.12,95H178.66V21.24Zm-2.89,62.84a12.7,12.7,0,0,0,6.3-1.35,9.18,9.18,0,0,0,3.77-4.44,26,26,0,0,0,1.86-8.17q.47-5.06.47-12.6c0-4.21-.14-7.89-.41-11.06a27.56,27.56,0,0,0-1.71-7.91,9.87,9.87,0,0,0-3.82-4.75,12.54,12.54,0,0,0-6.77-1.6h-6.31V84.08Z" transform="translate(-17.45 -16.3)"/><path class="cls-1" d="M264.75,21.24q9.3,0,14.47,4.7t5.16,14.32q0,7.44-3,12.14a13.89,13.89,0,0,1-9.31,6.05v.2c3.72.56,6.45,1.76,8.17,3.62s2.79,4.86,3.2,9c.14,1.38.24,2.88.31,4.5s.14,3.42.21,5.42c.14,3.93.34,6.93.62,9a5.77,5.77,0,0,0,2.69,4.24V95H271.15a8,8,0,0,1-1.44-3.57,39.16,39.16,0,0,1-.42-4.18l-.41-14.16a11.65,11.65,0,0,0-2.17-6.82q-2-2.47-6.61-2.48h-8V95H237.26V21.24Zm-6.41,32.25q5.37,0,8.27-2.54c1.93-1.68,2.89-4.53,2.89-8.52q0-10.23-10.33-10.23h-7V53.49Z" transform="translate(-17.45 -16.3)"/><path class="cls-1" d="M293.94,42.69a34.3,34.3,0,0,1,3.41-12.15,19.09,19.09,0,0,1,7.6-7.9q4.95-2.85,13.33-2.84t13.33,2.84a19.09,19.09,0,0,1,7.6,7.9,34.51,34.51,0,0,1,3.41,12.15,144.32,144.32,0,0,1,.77,15.45,143.94,143.94,0,0,1-.77,15.5,34.42,34.42,0,0,1-3.41,12.09,18.11,18.11,0,0,1-7.6,7.75q-5,2.68-13.33,2.69T305,93.48a18.11,18.11,0,0,1-7.6-7.75,34.21,34.21,0,0,1-3.41-12.09,141.41,141.41,0,0,1-.77-15.5A141.76,141.76,0,0,1,293.94,42.69ZM308.41,70.8a34.71,34.71,0,0,0,1.45,8.47A9.3,9.3,0,0,0,313,84a10.18,10.18,0,0,0,10.64,0,9.37,9.37,0,0,0,3.1-4.75,35.2,35.2,0,0,0,1.45-8.47q.36-5.22.36-12.66t-.36-12.61a35.94,35.94,0,0,0-1.45-8.48,9.44,9.44,0,0,0-3.1-4.8,10.18,10.18,0,0,0-10.64,0,9.38,9.38,0,0,0-3.1,4.8,35.43,35.43,0,0,0-1.45,8.48q-.36,5.16-.36,12.61T308.41,70.8Z" transform="translate(-17.45 -16.3)"/><path class="cls-1" d="M373.67,75.81H374l11-54.57h15.39L383.39,95H364.27L347.32,21.24h15.91Z" transform="translate(-17.45 -16.3)"/><path class="cls-1" d="M441,71.78h.2V21.24h13.64V95H437.85L419.66,43.36h-.21V95H405.81V21.24H423Z" transform="translate(-17.45 -16.3)"/><path class="cls-2" d="M514.84,21.24a36.08,36.08,0,0,1,8.42.93,17.36,17.36,0,0,1,6.66,3.1,14.3,14.3,0,0,1,4.34,5.79A22.44,22.44,0,0,1,535.81,40,18.45,18.45,0,0,1,533,50.23a14,14,0,0,1-8.37,5.84v.21a14.58,14.58,0,0,1,9.82,5.27q3.62,4.44,3.62,11.88A29.56,29.56,0,0,1,537,81.7a16.85,16.85,0,0,1-3.87,6.87,19.5,19.5,0,0,1-7.13,4.7A29.37,29.37,0,0,1,515,95H489.93V21.24Zm-5.79,30.28q6.19,0,9-2.22c1.9-1.48,2.84-4,2.84-7.49s-.86-6-2.58-7.44-4.44-2.17-8.16-2.17h-5.38V51.52Zm1.55,32.56a14.59,14.59,0,0,0,8.68-2.38c2.2-1.59,3.31-4.51,3.31-8.79a14.08,14.08,0,0,0-.88-5.32,9,9,0,0,0-2.38-3.41,8.66,8.66,0,0,0-3.56-1.81,19,19,0,0,0-4.55-.51h-6.41V84.08Z" transform="translate(-17.45 -16.3)"/><path class="cls-2" d="M580.15,21.24,599.68,95h-15.5l-3.41-15.61H561.13L557.72,95h-15.5l19.53-73.79Zm-2,46-7.13-33.17h-.2l-7.13,33.17Z" transform="translate(-17.45 -16.3)"/><path class="cls-2" d="M640,71.78h.21V21.24h13.64V95h-17L618.7,43.36h-.21V95H604.85V21.24H622Z" transform="translate(-17.45 -16.3)"/><path class="cls-2" d="M679.05,50.8h.2l18.81-29.56h16.12l-20,31.63L716.46,95H699.71L684.52,64.75l-5.47,8.37V95H664.16V21.24h14.89Z" transform="translate(-17.45 -16.3)"/><path class="cls-1" d="M178.3,106.74h2.86L193,149.25h.13l12.05-42.51h3.5l12.23,42.51h.13l11.66-42.51h3l-13.07,45.51h-3.18L207,109.16h-.13l-12.3,43.09h-3.12Z" transform="translate(-17.45 -16.3)"/><path class="cls-1" d="M239.34,106.74h30.58v2.42H242.14v18.23h26.13v2.42H242.14v20h28.1v2.43h-30.9Z" transform="translate(-17.45 -16.3)"/><path class="cls-1" d="M292.73,106.74h4l17.78,42.38h.12l17.59-42.38h4v45.51h-2.8V110.18h-.13L316,152.25h-2.8l-17.53-42.07h-.12v42.07h-2.81Z" transform="translate(-17.45 -16.3)"/><path class="cls-1" d="M357.79,106.74h3.06l18,45.51h-3l-5.73-14.6H348.3l-5.8,14.6h-3Zm11.41,28.49-9.75-25.75h-.13l-10.13,25.75Z" transform="translate(-17.45 -16.3)"/><path class="cls-1" d="M382.07,106.74h2.8v26.2l28.61-26.2h3.63l-20.77,18.93,22,26.58h-3.5L394.3,127.58l-9.43,8.61v16.06h-2.8Z" transform="translate(-17.45 -16.3)"/><path class="cls-1" d="M421.12,106.74h30.59v2.42H423.93v18.23h26.12v2.42H423.93v20H452v2.43H421.12Z" transform="translate(-17.45 -16.3)"/><path class="cls-1" d="M474.52,106.74h2.8v45.51h-2.8Z" transform="translate(-17.45 -16.3)"/><path class="cls-1" d="M480.45,109.16v-2.42H515.3v2.42H499.24v43.09h-2.8V109.16Z" transform="translate(-17.45 -16.3)"/><path class="cls-1" d="M531.74,106.74h2.87l11.85,42.51h.13l12-42.51h3.5l12.24,42.51h.12l11.66-42.51h3l-13.06,45.51H572.9l-12.49-43.09h-.13L548,152.25h-3.13Z" transform="translate(-17.45 -16.3)"/><path class="cls-1" d="M634,129.49a29.06,29.06,0,0,1-1.47,9.34,22.5,22.5,0,0,1-4.24,7.59,19.69,19.69,0,0,1-6.78,5.06,23.45,23.45,0,0,1-18.26,0,19.66,19.66,0,0,1-6.82-5.06,22.48,22.48,0,0,1-4.23-7.59,30.38,30.38,0,0,1,0-18.67,22.48,22.48,0,0,1,4.23-7.59,19.66,19.66,0,0,1,6.82-5.06,23.45,23.45,0,0,1,18.26,0,19.69,19.69,0,0,1,6.78,5.06,22.5,22.5,0,0,1,4.24,7.59A29,29,0,0,1,634,129.49Zm-40.47,0a26.41,26.41,0,0,0,1.28,8.29,20.53,20.53,0,0,0,3.69,6.79,17.59,17.59,0,0,0,13.89,6.34,17.76,17.76,0,0,0,7.94-1.72,18.06,18.06,0,0,0,5.89-4.62,20.37,20.37,0,0,0,3.7-6.79,27.66,27.66,0,0,0,0-16.57,20.37,20.37,0,0,0-3.7-6.79,18.06,18.06,0,0,0-5.89-4.62,19.23,19.23,0,0,0-15.9,0,18,18,0,0,0-5.93,4.62,20.53,20.53,0,0,0-3.69,6.79A26.39,26.39,0,0,0,593.54,129.49Z" transform="translate(-17.45 -16.3)"/><path class="cls-1" d="M640,106.74h19a24.42,24.42,0,0,1,5.61.61,13.22,13.22,0,0,1,4.59,2,9.65,9.65,0,0,1,3.09,3.6,12.41,12.41,0,0,1,1.11,5.55,11.82,11.82,0,0,1-2.58,7.74,11.29,11.29,0,0,1-7.16,3.92v.13a10.73,10.73,0,0,1,4.93,1.66,8.07,8.07,0,0,1,2.71,3.12,12.45,12.45,0,0,1,1.15,4.08,39.22,39.22,0,0,1,.25,4.46v2.61a19.92,19.92,0,0,0,.13,2.39,12.23,12.23,0,0,0,.41,2.07,4.9,4.9,0,0,0,.8,1.6H670.9a8.35,8.35,0,0,1-1-3.73c-.06-1.43-.09-2.9-.09-4.43s-.07-3.05-.2-4.56a9.59,9.59,0,0,0-1.21-4.05,7.29,7.29,0,0,0-3.21-2.86,14.27,14.27,0,0,0-6.22-1.09H642.8v20.72H640Zm19,22.37a17,17,0,0,0,4.62-.6,9.9,9.9,0,0,0,3.67-1.88,9.06,9.06,0,0,0,2.42-3.25,11.49,11.49,0,0,0,.89-4.72,9.25,9.25,0,0,0-1-4.37,8.3,8.3,0,0,0-2.54-3,10.67,10.67,0,0,0-3.7-1.66,18.6,18.6,0,0,0-4.4-.51H642.8v20Z" transform="translate(-17.45 -16.3)"/><path class="cls-1" d="M680.14,106.74h2.8v26.2l28.61-26.2h3.63l-20.77,18.93,22.05,26.58H713l-20.58-24.67-9.43,8.61v16.06h-2.8Z" transform="translate(-17.45 -16.3)"/><path class="cls-3" d="M126.33,94.54c-4.8-1.45-14.77-.81-20-.94v40.47h10.54C140.5,138.09,147.61,101.25,126.33,94.54Z" transform="translate(-17.45 -16.3)"/><path class="cls-3" d="M44.65,85.69c.29,29.2-1.15,53.12,34.63,48.38V39.58C44.94,35.15,44.64,57.61,44.65,85.69Z" transform="translate(-17.45 -16.3)"/><path class="cls-3" d="M131,43.53c-4.34-4.55-17.44-4-24.66-4v35.2h7.72C134,77.9,142,56,131,43.53Z" transform="translate(-17.45 -16.3)"/><path class="cls-1" d="M17.54,84.94C16,152.05,41,155.74,92.33,154.43V19.3C43.3,18.13,15.61,19.25,17.54,84.94Zm61.74,49.13c-35.78,4.74-34.34-19.18-34.63-48.38,0-28.08.29-50.54,34.63-46.11Z" transform="translate(-17.45 -16.3)"/><path class="cls-2" d="M142.52,83.43v-.37c36.89-12.4,20.62-69.71-17.88-63.43H106.38c-4.86-.1-9.54-.23-14-.33V154.43c3.36-.08,6.83-.19,10.41-.3,16.18.26,34.78.23,42.13-3.31C174.37,141.41,175.76,87.05,142.52,83.43ZM106.38,39.58c7.22-.09,20.32-.6,24.66,4C142,56,134,77.9,114.1,74.78h-7.72Zm10.54,94.49H106.38V93.6c5.18.13,15.15-.51,20,.94C147.61,101.25,140.5,138.09,116.92,134.07Z" transform="translate(-17.45 -16.3)"/><path class="cls-3" d="M1257.52,91.76c-4.8-1.45-14.77-.8-20-.94v40.47h10.54C1271.69,135.31,1278.8,98.48,1257.52,91.76Z" transform="translate(-17.45 -16.3)"/><path class="cls-3" d="M1175.83,82.92c.3,29.19-1.14,53.11,34.63,48.37V36.8C1176.13,32.38,1175.82,54.83,1175.83,82.92Z" transform="translate(-17.45 -16.3)"/><path class="cls-3" d="M1262.22,40.75c-4.33-4.54-17.44-4-24.65-4V72h7.71C1265.21,75.12,1273.21,53.25,1262.22,40.75Z" transform="translate(-17.45 -16.3)"/><path class="cls-1" d="M1148.73,82.16c-1.53,67.12,23.45,70.81,74.79,69.5V16.52C1174.49,15.35,1146.8,16.47,1148.73,82.16Zm61.73,49.13c-35.77,4.74-34.33-19.18-34.63-48.37,0-28.09.3-50.54,34.63-46.12Z" transform="translate(-17.45 -16.3)"/><path class="cls-2" d="M1273.71,80.66v-.38c36.89-12.39,20.62-69.7-17.89-63.43h-18.25c-4.86-.1-9.54-.22-14-.33V151.66l10.41-.3c16.18.26,34.78.22,42.13-3.32C1305.55,138.64,1306.94,84.27,1273.71,80.66ZM1237.57,36.8c7.21-.08,20.32-.59,24.65,4,11,12.5,3,34.37-16.94,31.25h-7.71Zm10.54,94.49h-10.54V90.82c5.18.14,15.15-.51,20,.94C1278.8,98.48,1271.69,135.31,1248.11,131.29Z" transform="translate(-17.45 -16.3)"/><path class="cls-1" d="M1866.58,18.7q7.76,0,12.51,2.53a18.06,18.06,0,0,1,7.39,7.23A32.35,32.35,0,0,1,1890,39.78a106.72,106.72,0,0,1,.93,14.78,105.11,105.11,0,0,1-1.18,16.89,32.42,32.42,0,0,1-4.09,11.84,17.87,17.87,0,0,1-7.75,6.92,29,29,0,0,1-12.3,2.27H1842.2V18.7Zm-2.89,62.83a12.81,12.81,0,0,0,6.3-1.34,9.22,9.22,0,0,0,3.78-4.45,26,26,0,0,0,1.86-8.16q.46-5.07.46-12.61,0-6.3-.41-11.06A27.4,27.4,0,0,0,1874,36a9.84,9.84,0,0,0-3.82-4.76,12.63,12.63,0,0,0-6.77-1.6h-6.3V81.53Z" transform="translate(-17.45 -16.3)"/><path class="cls-1" d="M1928.28,18.7q9.3,0,14.47,4.7t5.16,14.31q0,7.44-3,12.14a13.85,13.85,0,0,1-9.3,6v.21q5.58.82,8.16,3.61t3.2,9c.14,1.38.25,2.88.31,4.5s.14,3.43.21,5.43q.21,5.88.62,9a5.75,5.75,0,0,0,2.69,4.23v.62h-16.12a8,8,0,0,1-1.45-3.56,36.94,36.94,0,0,1-.41-4.19l-.42-14.16a11.67,11.67,0,0,0-2.17-6.82q-2-2.47-6.61-2.48h-8V92.48h-14.88V18.7Zm-6.41,32.24q5.37,0,8.27-2.53t2.89-8.53q0-10.23-10.33-10.23h-7V50.94Z" transform="translate(-17.45 -16.3)"/><path class="cls-1" d="M1957.47,40.14A34.39,34.39,0,0,1,1960.88,28a19.12,19.12,0,0,1,7.6-7.91q5-2.84,13.33-2.84t13.33,2.84a19.12,19.12,0,0,1,7.6,7.91,34.39,34.39,0,0,1,3.41,12.14,144.32,144.32,0,0,1,.77,15.45,143.81,143.81,0,0,1-.77,15.5,34.29,34.29,0,0,1-3.41,12.09,18.11,18.11,0,0,1-7.6,7.75q-5,2.68-13.33,2.69t-13.33-2.69a18.11,18.11,0,0,1-7.6-7.75,34.29,34.29,0,0,1-3.41-12.09,143.81,143.81,0,0,1-.77-15.5A144.32,144.32,0,0,1,1957.47,40.14Zm14.47,28.11a34.71,34.71,0,0,0,1.45,8.47,9.44,9.44,0,0,0,3.1,4.76,10.18,10.18,0,0,0,10.64,0,9.38,9.38,0,0,0,3.1-4.76,34.71,34.71,0,0,0,1.45-8.47q.36-5.22.36-12.66T1991.68,43a35.34,35.34,0,0,0-1.45-8.47,9.36,9.36,0,0,0-3.1-4.81,10.18,10.18,0,0,0-10.64,0,9.43,9.43,0,0,0-3.1,4.81,35.34,35.34,0,0,0-1.45,8.47q-.36,5.18-.36,12.61T1971.94,68.25Z" transform="translate(-17.45 -16.3)"/><path class="cls-1" d="M2037.2,73.26h.31l11-54.56h15.4l-16.95,73.78H2027.8l-17-73.78h15.92Z" transform="translate(-17.45 -16.3)"/><path class="cls-1" d="M2104.48,69.23h.21V18.7h13.64V92.48h-16.95l-18.19-51.67H2083V92.48h-13.64V18.7h17.16Z" transform="translate(-17.45 -16.3)"/><path class="cls-2" d="M2178.37,18.7a36,36,0,0,1,8.42.93,17.26,17.26,0,0,1,6.67,3.1,14.29,14.29,0,0,1,4.34,5.78,22.69,22.69,0,0,1,1.55,8.89,18.4,18.4,0,0,1-2.79,10.28,14,14,0,0,1-8.37,5.84v.21A14.62,14.62,0,0,1,2198,59q3.61,4.44,3.62,11.88a29.51,29.51,0,0,1-1.14,8.27,17,17,0,0,1-3.87,6.88,19.5,19.5,0,0,1-7.13,4.7,29.55,29.55,0,0,1-10.91,1.75h-25.11V18.7ZM2172.58,49c4.13,0,7.15-.74,9-2.23s2.84-4,2.84-7.49-.86-6-2.58-7.44-4.44-2.17-8.16-2.17h-5.38V49Zm1.55,32.55a14.5,14.5,0,0,0,8.68-2.38q3.32-2.37,3.31-8.78a14,14,0,0,0-.88-5.32,8.89,8.89,0,0,0-2.38-3.41,8.54,8.54,0,0,0-3.56-1.81,18.52,18.52,0,0,0-4.55-.52h-6.41V81.53Z" transform="translate(-17.45 -16.3)"/><path class="cls-2" d="M2243.68,18.7l19.53,73.78h-15.5l-3.41-15.6h-19.63l-3.42,15.6h-15.5l19.54-73.78Zm-2,46-7.13-33.17h-.21l-7.13,33.17Z" transform="translate(-17.45 -16.3)"/><path class="cls-2" d="M2303.52,69.23h.2V18.7h13.64V92.48h-16.94l-18.19-51.67H2282V92.48h-13.64V18.7h17.16Z" transform="translate(-17.45 -16.3)"/><path class="cls-2" d="M2342.58,48.25h.2l18.81-29.55h16.12l-20,31.62L2380,92.48h-16.74L2348.06,62.2l-5.48,8.37V92.48H2327.7V18.7h14.88Z" transform="translate(-17.45 -16.3)"/><path class="cls-1" d="M1841.83,104.2h2.87l11.85,42.51h.12l12-42.51h3.5l12.24,42.51h.12l11.66-42.51h3l-13.06,45.5H1883l-12.49-43.08h-.13l-12.29,43.08H1855Z" transform="translate(-17.45 -16.3)"/><path class="cls-1" d="M1902.87,104.2h30.58v2.42h-27.78v18.22h26.13v2.43h-26.13v20h28.1v2.42h-30.9Z" transform="translate(-17.45 -16.3)"/><path class="cls-1" d="M1956.27,104.2h4l17.78,42.38h.12l17.59-42.38h4v45.5H1997V107.64h-.13l-17.33,42.06h-2.8l-17.52-42.06h-.13V149.7h-2.8Z" transform="translate(-17.45 -16.3)"/><path class="cls-1" d="M2021.32,104.2h3.06l18,45.5h-3l-5.73-14.59h-21.79L2006,149.7h-3Zm11.41,28.48L2023,106.94h-.13l-10.13,25.74Z" transform="translate(-17.45 -16.3)"/><path class="cls-1" d="M2045.6,104.2h2.8v26.19L2077,104.2h3.63l-20.77,18.92,22.05,26.58h-3.51L2057.83,125l-9.43,8.6V149.7h-2.8Z" transform="translate(-17.45 -16.3)"/><path class="cls-1" d="M2084.66,104.2h30.58v2.42h-27.78v18.22h26.12v2.43h-26.12v20h28.1v2.42h-30.9Z" transform="translate(-17.45 -16.3)"/><path class="cls-1" d="M2138.05,104.2h2.81v45.5h-2.81Z" transform="translate(-17.45 -16.3)"/><path class="cls-1" d="M2144,106.62V104.2h34.85v2.42h-16V149.7H2160V106.62Z" transform="translate(-17.45 -16.3)"/><path class="cls-1" d="M2195.27,104.2h2.87L2210,146.71h.13l12-42.51h3.5l12.24,42.51h.13l11.66-42.51h3l-13.06,45.5h-3.19l-12.49-43.08h-.12l-12.3,43.08h-3.12Z" transform="translate(-17.45 -16.3)"/><path class="cls-1" d="M2297.54,127a29,29,0,0,1-1.47,9.33,22.55,22.55,0,0,1-4.23,7.59,19.88,19.88,0,0,1-6.79,5.07,21.58,21.58,0,0,1-9.11,1.84,21.83,21.83,0,0,1-9.15-1.84,19.77,19.77,0,0,1-6.81-5.07,22.4,22.4,0,0,1-4.24-7.59,30.38,30.38,0,0,1,0-18.67A22.35,22.35,0,0,1,2260,110a19.52,19.52,0,0,1,6.81-5.07,21.83,21.83,0,0,1,9.15-1.85,21.58,21.58,0,0,1,9.11,1.85,19.63,19.63,0,0,1,6.79,5.07,22.5,22.5,0,0,1,4.23,7.58A29.06,29.06,0,0,1,2297.54,127Zm-40.46,0a26.39,26.39,0,0,0,1.27,8.28,20.17,20.17,0,0,0,3.7,6.79,17.55,17.55,0,0,0,13.89,6.34,17.61,17.61,0,0,0,7.93-1.72,18,18,0,0,0,5.89-4.62,20.17,20.17,0,0,0,3.7-6.79,27.66,27.66,0,0,0,0-16.57,20.22,20.22,0,0,0-3.7-6.78,18.08,18.08,0,0,0-27.71,0,20.22,20.22,0,0,0-3.7,6.78A26.45,26.45,0,0,0,2257.08,127Z" transform="translate(-17.45 -16.3)"/><path class="cls-1" d="M2303.53,104.2h19a25,25,0,0,1,5.6.6,13.23,13.23,0,0,1,4.59,2,9.33,9.33,0,0,1,3.09,3.6,12.37,12.37,0,0,1,1.12,5.54,11.81,11.81,0,0,1-2.59,7.75,11.21,11.21,0,0,1-7.16,3.91v.13a10.94,10.94,0,0,1,4.94,1.66,8,8,0,0,1,2.7,3.12,12.52,12.52,0,0,1,1.15,4.08,39.35,39.35,0,0,1,.25,4.46v2.62a22.38,22.38,0,0,0,.13,2.39,12.63,12.63,0,0,0,.42,2.07,4.64,4.64,0,0,0,.79,1.59h-3.12a8.4,8.4,0,0,1-1-3.73c-.06-1.42-.09-2.9-.09-4.43s-.07-3-.19-4.55a9.89,9.89,0,0,0-1.21-4.05,7.28,7.28,0,0,0-3.22-2.87,14.42,14.42,0,0,0-6.21-1.08h-16.19V149.7h-2.8Zm19,22.37a17,17,0,0,0,4.61-.61,9.75,9.75,0,0,0,3.67-1.88,9,9,0,0,0,2.42-3.25,11.49,11.49,0,0,0,.89-4.72,9.35,9.35,0,0,0-1-4.36,8.55,8.55,0,0,0-2.55-3,10.57,10.57,0,0,0-3.7-1.65,18.52,18.52,0,0,0-4.39-.51h-16.19v19.95Z" transform="translate(-17.45 -16.3)"/><path class="cls-1" d="M2343.67,104.2h2.8v26.19l28.61-26.19h3.63l-20.77,18.92,22,26.58h-3.51L2355.9,125l-9.43,8.6V149.7h-2.8Z" transform="translate(-17.45 -16.3)"/><path class="cls-1" d="M2696.22,50.82q7.74,0,12.5,2.53a18,18,0,0,1,7.39,7.24,31.82,31.82,0,0,1,3.56,11.31,105.2,105.2,0,0,1,.94,14.78,105.14,105.14,0,0,1-1.19,16.9,32.37,32.37,0,0,1-4.09,11.83,17.81,17.81,0,0,1-7.75,6.92,28.94,28.94,0,0,1-12.29,2.28h-23.46V50.82Zm-2.9,62.83a12.77,12.77,0,0,0,6.31-1.34,9.23,9.23,0,0,0,3.77-4.44,26,26,0,0,0,1.86-8.17q.47-5.06.46-12.61,0-6.3-.41-11a27.5,27.5,0,0,0-1.7-7.91,9.89,9.89,0,0,0-3.83-4.75,12.52,12.52,0,0,0-6.77-1.6h-6.3v51.87Z" transform="translate(-17.45 -16.3)"/><path class="cls-1" d="M2757.91,50.82q9.3,0,14.47,4.7t5.17,14.32q0,7.44-3,12.14a13.89,13.89,0,0,1-9.3,6v.2q5.58.83,8.16,3.62t3.21,9c.13,1.38.24,2.88.31,4.49s.13,3.43.2,5.43c.14,3.93.35,6.92.62,9a5.8,5.8,0,0,0,2.69,4.24v.62h-16.12a8,8,0,0,1-1.45-3.57,39.46,39.46,0,0,1-.41-4.18l-.41-14.16a11.65,11.65,0,0,0-2.18-6.82c-1.3-1.65-3.51-2.48-6.61-2.48h-8v31.21h-14.88V50.82Zm-6.41,32.24c3.59,0,6.34-.84,8.27-2.53s2.89-4.53,2.89-8.52q0-10.23-10.33-10.23h-7V83.06Z" transform="translate(-17.45 -16.3)"/><path class="cls-1" d="M2787.11,72.27a34.09,34.09,0,0,1,3.41-12.15,19,19,0,0,1,7.59-7.9q5-2.85,13.33-2.85t13.33,2.85a19.09,19.09,0,0,1,7.6,7.9,34.3,34.3,0,0,1,3.41,12.15,141.57,141.57,0,0,1,.77,15.44,141.6,141.6,0,0,1-.77,15.51,34.21,34.21,0,0,1-3.41,12.09,18.16,18.16,0,0,1-7.6,7.75q-5,2.68-13.33,2.69t-13.33-2.69a18.08,18.08,0,0,1-7.59-7.75,34,34,0,0,1-3.41-12.09,141.46,141.46,0,0,1-.78-15.51A141.45,141.45,0,0,1,2787.11,72.27Zm14.46,28.1a35.29,35.29,0,0,0,1.45,8.48,9.41,9.41,0,0,0,3.1,4.75,10.18,10.18,0,0,0,10.64,0,9.42,9.42,0,0,0,3.11-4.75,35.35,35.35,0,0,0,1.44-8.48q.36-5.2.36-12.66t-.36-12.6a36,36,0,0,0-1.44-8.48,9.45,9.45,0,0,0-3.11-4.8,10.18,10.18,0,0,0-10.64,0,9.44,9.44,0,0,0-3.1,4.8,35.94,35.94,0,0,0-1.45,8.48q-.36,5.16-.36,12.6T2801.57,100.37Z" transform="translate(-17.45 -16.3)"/><path class="cls-1" d="M2866.83,105.39h.31l11-54.57h15.4l-16.95,73.79h-19.12l-16.95-73.79h15.92Z" transform="translate(-17.45 -16.3)"/><path class="cls-1" d="M2934.11,101.36h.21V50.82H2948v73.79H2931l-18.19-51.67h-.2v51.67H2899V50.82h17.16Z" transform="translate(-17.45 -16.3)"/><path class="cls-2" d="M3008,50.82a36,36,0,0,1,8.42.93,17.33,17.33,0,0,1,6.67,3.1,14.39,14.39,0,0,1,4.34,5.79,22.62,22.62,0,0,1,1.55,8.89,18.45,18.45,0,0,1-2.79,10.28,14,14,0,0,1-8.37,5.84v.21a14.58,14.58,0,0,1,9.81,5.27q3.63,4.44,3.62,11.88a29.56,29.56,0,0,1-1.14,8.27,16.73,16.73,0,0,1-3.87,6.87,19.42,19.42,0,0,1-7.13,4.7,29.52,29.52,0,0,1-10.9,1.76h-25.12V50.82Zm-5.79,30.28q6.21,0,9-2.22t2.85-7.49c0-3.52-.87-6-2.59-7.44s-4.44-2.17-8.16-2.17H2998V81.1Zm1.55,32.55a14.57,14.57,0,0,0,8.68-2.37c2.21-1.59,3.31-4.51,3.31-8.79a13.89,13.89,0,0,0-.88-5.32,8.94,8.94,0,0,0-2.37-3.41,8.64,8.64,0,0,0-3.57-1.81,19,19,0,0,0-4.55-.52H2998v22.22Z" transform="translate(-17.45 -16.3)"/><path class="cls-2" d="M3073.31,50.82l19.53,73.79h-15.5L3073.93,109H3054.3l-3.41,15.61h-15.5l19.53-73.79Zm-2,46-7.13-33.17H3064l-7.13,33.17Z" transform="translate(-17.45 -16.3)"/><path class="cls-2" d="M3133.15,101.36h.21V50.82H3147v73.79h-16.95l-18.19-51.67h-.21v51.67H3098V50.82h17.16Z" transform="translate(-17.45 -16.3)"/><path class="cls-2" d="M3172.21,80.38h.21l18.81-29.56h16.12l-20,31.62,22.32,42.17h-16.74l-15.19-30.28-5.48,8.37v21.91h-14.88V50.82h14.88Z" transform="translate(-17.45 -16.3)"/></svg>