<svg id="Layer_1" data-name="Layer 1" xmlns="http://www.w3.org/2000/svg" viewBox="0 0 206 135"><defs><style>.cls-1{fill:#fff;}.cls-2{fill:#389ed7;}</style></defs><path class="cls-1" d="M88.1.5h5c4,5.87,8.06,11.66,11.82,17.66,3.43-6,7.28-11.79,11-17.66h5.15c0,11.31,0,22.61,0,33.92-1.71,0-3.43,0-5.14,0q-.06-12.48,0-25c-3.14,5.17-6.27,10.36-9.64,15.38l-2.87-.26c-3.35-5-6.94-9.93-10-15.12.19,8.32.06,16.64.07,25-1.78,0-3.56,0-5.34,0C88.05,23.11,88,11.81,88.1.5Z" transform="translate(0 -0.5)"/><path class="cls-1" d="M138.27.5h3.79c4.38,11.32,8.88,22.59,13.22,33.93-1.95,0-3.9.11-5.84-.08-1.08-2.81-2.12-5.63-3.22-8.44-4.14-.15-8.33-.2-12.47,0-1,2.81-2,5.64-3.06,8.44-1.79.14-3.59.06-5.37.07Q131.76,17.46,138.27.5Zm-2.56,20.77c2.84-.05,5.69,0,8.54,0-1.06-4.33-3-8.45-4.08-12.78C138.67,12.71,136.79,17,135.71,21.27Z" transform="translate(0 -0.5)"/><path class="cls-1" d="M159.46.5h5.25c.1,4.93,0,9.87.06,14.8,4-4.9,7.88-9.92,11.92-14.8h6.24c-4.41,5.62-9.07,11-13.49,16.65,4.83,5.76,9.7,11.48,14.49,17.28-2.26,0-4.53.07-6.78,0C173,29.55,169,24.54,164.9,19.69c-.11,4.9-.05,9.8-.14,14.7-1.77.09-3.55.09-5.32,0C159.44,23.1,159.41,11.8,159.46.5Z" transform="translate(0 -0.5)"/><path class="cls-1" d="M188.1.5H206c-.54,1.57-1.05,3.14-1.63,4.69-3.63.34-7.49-.37-11,.34.06,3.07-.19,6.17.12,9.22,3.55,0,7.1,0,10.65,0,.4,1.51.09,3.13.13,4.68-3.63.08-7.26-.05-10.89.06.1,3.42-.3,6.92.18,10.28,4.14,0,8.29,0,12.43,0v4.69c-6,0-11.95,0-17.92,0C188.05,23.11,188,11.81,188.1.5Z" transform="translate(0 -0.5)"/><path class="cls-1" d="M88.3,44.54c4.32-.09,8.65,0,13,0,0,4.42,0,8.84,0,13.26-4.29-.42-8.88.38-13-.4C88.31,53.1,88.32,48.82,88.3,44.54Z" transform="translate(0 -0.5)"/><path class="cls-1" d="M107.38,57.69c4.18-.24,8.37-.15,12.55,0,.19,11.28.09,22.56.09,33.84-4.23,0-8.46.07-12.68,0C107.35,80.21,107.3,69,107.38,57.69Z" transform="translate(0 -0.5)"/><path class="cls-1" d="M58.11,102.62c8.08-4.15,19.16-.94,23.2,7.35a23.27,23.27,0,0,1,.16,16.18,17.41,17.41,0,0,1-13.72,9.35H63.22a20.52,20.52,0,0,1-7.89-3.29C45.62,125.16,47.15,107.7,58.11,102.62ZM62.33,106c-7.87,2.37-9.42,12.8-6.11,19.33,3.1,6.21,12.48,7.38,17.28,2.57,4.17-4.15,4.35-11,2.31-16.2S67.43,104.39,62.33,106Z" transform="translate(0 -0.5)"/><path class="cls-1" d="M0,101.18c2,0,3.94,0,5.92,0,2.89,8.47,5.25,17.18,8.45,25.51C16.45,120.29,18.9,114,21,107.56c-.66-2.15-1.56-4.21-2.21-6.35,1.8,0,3.6,0,5.4,0,3,8.39,5.85,16.84,8.66,25.29,3-8.24,5.33-16.89,8.14-25.27,1.84-.08,3.68,0,5.51,0-3.78,11.34-7.53,22.7-11.38,34-1.46.06-2.91.06-4.36,0Q27,125,23.46,114.61c-2.22,6.94-4.9,13.74-7.35,20.6-1.41.07-2.82.07-4.24,0C7.84,124,4.13,112.73,0,101.58Z" transform="translate(0 -0.5)"/><path class="cls-1" d="M88.45,101.19c5.51.39,11.81-1.24,16.64,2.19,5.5,4.23,3.75,13.91-2.8,16.15,3.81,4.78,6.78,10.2,9.84,15.48-2,0-4.1,0-6.14,0-2.92-4.54-5.53-9.31-8.91-13.54l-3.31-.09c-.14,4.56.17,9.15-.14,13.69-1.73,0-3.46,0-5.18,0Q88.42,118.09,88.45,101.19Zm5.26,5c.09,3.62,0,7.24,0,10.86,2.46.06,5.33.33,7.22-1.58,3.07-2.49,2.32-8.37-1.78-9.3C97.46,105.9,95.23,105.34,93.71,106.18Z" transform="translate(0 -0.5)"/><path class="cls-1" d="M116.42,135c0-11.28-.18-22.58.07-33.84,1.74.16,3.57-.24,5.27.17q0,7.11,0,14.24c4.32-4.5,7.7-10,12-14.41,2,0,4,0,6.07,0l-13.49,16.5c4.81,5.79,9.7,11.51,14.49,17.31-2.27,0-4.54,0-6.82,0-4.1-4.85-8-9.86-12.21-14.64,0,4.88-.12,9.75-.07,14.63C120,135,118.2,135,116.42,135Z" transform="translate(0 -0.5)"/><path class="cls-2" d="M101.28,44.52q17.3,0,34.6,0c0,4.39,0,8.79,0,13.18-5.31,0-10.62,0-15.94,0-4.18-.12-8.37-.21-12.55,0a56.29,56.29,0,0,1-6.09.09C101.3,53.36,101.31,48.94,101.28,44.52Z" transform="translate(0 -0.5)"/><path class="cls-2" d="M88.59,61.42c4,.09,8,.52,12-.06l.61.84c-.11,9.76,0,19.53-.05,29.29-4.2,0-8.39,0-12.59,0C88.52,81.47,88.5,71.45,88.59,61.42Z" transform="translate(0 -0.5)"/></svg>